<?xml version="1.0" encoding="utf-8"?>
<!-- Generator: Adobe Illustrator 16.0.0, SVG Export Plug-In . SVG Version: 6.00 Build 0)  -->
<!DOCTYPE svg PUBLIC "-//W3C//DTD SVG 1.1//EN" "http://www.w3.org/Graphics/SVG/1.1/DTD/svg11.dtd">
<svg version="1.1" id="Layer_1" xmlns="http://www.w3.org/2000/svg" xmlns:xlink="http://www.w3.org/1999/xlink" x="0px" y="0px"
	 width="512px" height="512px" viewBox="0 0 512 512" enable-background="new 0 0 512 512" xml:space="preserve">
<path d="M445.52,215h-29.934c-3.903-15-9.922-29.443-17.675-42.547l21.231-21.282c6.438-6.436,6.438-16.895,0-23.331l-34.96-34.972
	c-6.434-6.436-16.87-6.442-23.304-0.006l-21.332,21.23C326.443,106.339,312,100.315,297,96.415V66.48
	c0-9.101-7.179-16.48-16.28-16.48h-49.44C222.179,50,215,57.379,215,66.48v29.935c-15,3.9-29.443,9.921-42.547,17.675
	l-21.282-21.232c-6.436-6.438-16.895-6.438-23.331,0l-34.972,34.96c-6.436,6.434-6.442,16.87-0.006,23.304l21.23,21.332
	C106.337,185.557,100.315,200,96.415,215H66.48C57.379,215,50,222.179,50,231.28v49.44c0,9.102,7.379,16.28,16.48,16.28h29.935
	c3.9,15,9.921,29.443,17.675,42.547l-21.234,21.282c-6.436,6.434-6.436,16.895,0,23.328l34.96,34.973
	c6.436,6.438,16.87,6.444,23.306,0.007l21.332-21.229C185.557,405.661,200,411.683,215,415.586v29.934
	c0,9.102,7.179,16.48,16.28,16.48h49.44c9.102,0,16.28-7.379,16.28-16.48v-29.934c15-3.903,29.443-9.922,42.547-17.675
	l21.282,21.231c6.434,6.438,16.895,6.438,23.328,0l34.973-34.96c6.438-6.434,6.444-16.87,0.007-23.304l-21.229-21.332
	C405.661,326.443,411.683,312,415.586,297h29.934c9.102,0,16.48-7.179,16.48-16.28v-49.44C462,222.179,454.621,215,445.52,215z
	 M256,338.4c-45.509,0-82.4-36.892-82.4-82.4c0-45.509,36.891-82.4,82.4-82.4c45.509,0,82.4,36.891,82.4,82.4
	C338.4,301.509,301.509,338.4,256,338.4z"/>
</svg>
